<svg width="1280" height="760" viewBox="0 0 1280 760" fill="none" xmlns="http://www.w3.org/2000/svg">
  <defs>
    <linearGradient id="bg" x1="80" y1="40" x2="1200" y2="720" gradientUnits="userSpaceOnUse">
      <stop stop-color="#F5F1E8"/>
      <stop offset="1" stop-color="#DCE7E3"/>
    </linearGradient>
    <linearGradient id="panel" x1="150" y1="120" x2="1080" y2="640" gradientUnits="userSpaceOnUse">
      <stop stop-color="#FFFDF9"/>
      <stop offset="1" stop-color="#F3F6F4"/>
    </linearGradient>
    <linearGradient id="hero" x1="0" y1="0" x2="1" y2="1">
      <stop stop-color="#D7B28A"/>
      <stop offset="1" stop-color="#8F5E3B"/>
    </linearGradient>
    <linearGradient id="sea" x1="0" y1="0" x2="1" y2="1">
      <stop stop-color="#A5D4D4"/>
      <stop offset="1" stop-color="#3E7E8C"/>
    </linearGradient>
    <linearGradient id="forest" x1="0" y1="0" x2="1" y2="1">
      <stop stop-color="#A0C288"/>
      <stop offset="1" stop-color="#426A44"/>
    </linearGradient>
    <filter id="shadow" x="98" y="78" width="1084" height="604" filterUnits="userSpaceOnUse" color-interpolation-filters="sRGB">
      <feFlood flood-opacity="0" result="BackgroundImageFix"/>
      <feColorMatrix in="SourceAlpha" type="matrix" values="0 0 0 0 0 0 0 0 0 0 0 0 0 0 0 0 0 0 127 0" result="hardAlpha"/>
      <feOffset dy="10"/>
      <feGaussianBlur stdDeviation="18"/>
      <feColorMatrix type="matrix" values="0 0 0 0 0.121569 0 0 0 0 0.172549 0 0 0 0 0.196078 0 0 0 0.14 0"/>
      <feBlend mode="normal" in2="BackgroundImageFix" result="effect1_dropShadow_1_1"/>
      <feBlend mode="normal" in="SourceGraphic" in2="effect1_dropShadow_1_1" result="shape"/>
    </filter>
  </defs>

  <rect width="1280" height="760" fill="url(#bg)"/>
  <g filter="url(#shadow)">
    <rect x="134" y="104" width="1012" height="532" rx="24" fill="url(#panel)"/>
  </g>

  <rect x="134" y="104" width="1012" height="76" rx="24" fill="#17323D"/>
  <rect x="134" y="140" width="1012" height="40" fill="#17323D"/>
  <circle cx="176" cy="142" r="6" fill="#F59E7A"/>
  <circle cx="198" cy="142" r="6" fill="#F0CC71"/>
  <circle cx="220" cy="142" r="6" fill="#7DC6A2"/>
  <text x="252" y="149" fill="#F5F1E8" font-family="Verdana, sans-serif" font-size="23" font-weight="700">Semantic Photo Gallery</text>
  <rect x="941" y="124" width="161" height="36" rx="18" fill="#274B58"/>
  <text x="971" y="147" fill="#E9F3F1" font-family="Verdana, sans-serif" font-size="16" font-weight="700">42 images indexed</text>

  <rect x="174" y="216" width="932" height="118" rx="18" fill="#F5EFE6"/>
  <text x="206" y="252" fill="#6D6A63" font-family="Verdana, sans-serif" font-size="18" font-weight="700">Completed solution preview</text>
  <text x="206" y="283" fill="#17323D" font-family="Verdana, sans-serif" font-size="32" font-weight="700">Upload images, search by text, or search by image</text>
  <text x="206" y="312" fill="#55636A" font-family="Verdana, sans-serif" font-size="18">Temporary placeholder image for the README. Replace with a real screenshot from the solution branch.</text>
  <rect x="206" y="355" width="542" height="52" rx="14" fill="#FFFFFF"/>
  <text x="230" y="387" fill="#92A0A7" font-family="Verdana, sans-serif" font-size="18">e.g. beach, dog, mountain, sunset...</text>
  <rect x="764" y="355" width="134" height="52" rx="14" fill="#2F6F81"/>
  <text x="805" y="387" fill="#FFFFFF" font-family="Verdana, sans-serif" font-size="18" font-weight="700">Search</text>
  <rect x="914" y="355" width="152" height="52" rx="14" fill="#DDECE8"/>
  <text x="936" y="387" fill="#23515B" font-family="Verdana, sans-serif" font-size="18" font-weight="700">Image search</text>

  <rect x="174" y="378" width="292" height="206" rx="18" fill="#FFFFFF"/>
  <rect x="190" y="394" width="260" height="126" rx="14" fill="url(#hero)"/>
  <circle cx="319" cy="445" r="32" fill="#FFF3E4" fill-opacity="0.55"/>
  <text x="201" y="548" fill="#6A757B" font-family="Verdana, sans-serif" font-size="16">golden-hour-porch.jpg</text>
  <text x="201" y="574" fill="#2F6F81" font-family="Verdana, sans-serif" font-size="15" font-weight="700">score 0.9471</text>

  <rect x="494" y="378" width="292" height="206" rx="18" fill="#FFFFFF"/>
  <rect x="510" y="394" width="260" height="126" rx="14" fill="url(#sea)"/>
  <path d="M510 477C551 456 593 488 640 473C681 460 706 429 770 453V520H510V477Z" fill="#E7F7F7" fill-opacity="0.7"/>
  <text x="521" y="548" fill="#6A757B" font-family="Verdana, sans-serif" font-size="16">windy-coastline.png</text>
  <text x="521" y="574" fill="#2F6F81" font-family="Verdana, sans-serif" font-size="15" font-weight="700">score 0.9326</text>

  <rect x="814" y="378" width="292" height="206" rx="18" fill="#FFFFFF"/>
  <rect x="830" y="394" width="260" height="126" rx="14" fill="url(#forest)"/>
  <path d="M842 492L880 438L912 478L950 425L990 488L1020 455L1077 520H830L842 492Z" fill="#D8E7CF" fill-opacity="0.7"/>
  <text x="841" y="548" fill="#6A757B" font-family="Verdana, sans-serif" font-size="16">forest-trail.webp</text>
  <text x="841" y="574" fill="#2F6F81" font-family="Verdana, sans-serif" font-size="15" font-weight="700">score 0.9184</text>
</svg>
